<?xml version="1.0" encoding="UTF-8"?>
<svg version="1.1" xmlns="http://www.w3.org/2000/svg" width="256" height="256">
<path d="M0 0 C22.03852652 18.81159856 36.46579334 41.06373377 44.3515625 68.91015625 C44.69316406 70.08835937 45.03476563 71.2665625 45.38671875 72.48046875 C52.92056498 104.36791093 46.53869956 140.38566089 29.7109375 168.21484375 C19.22380228 184.89578124 5.20171214 199.62660904 -11.6484375 209.91015625 C-12.7209375 210.59335938 -13.7934375 211.2765625 -14.8984375 211.98046875 C-42.75922794 228.94201478 -78.25061189 233.92648545 -110.03027344 226.74707031 C-117.81941729 224.77736357 -125.2980262 222.14033195 -132.6484375 218.91015625 C-133.30263672 218.62688477 -133.95683594 218.34361328 -134.63085938 218.05175781 C-164.72593234 204.76588414 -188.43262339 179.18859339 -200.51953125 148.71386719 C-202.47890077 143.51521742 -204.1350825 138.25415274 -205.6484375 132.91015625 C-205.99003906 131.73195312 -206.33164063 130.55375 -206.68359375 129.33984375 C-214.21743998 97.45240157 -207.83557456 61.43465161 -191.0078125 33.60546875 C-172.71931393 4.51560818 -145.47270495 -14.79440926 -112.6484375 -24.08984375 C-111.47023438 -24.43144531 -110.29203125 -24.77304687 -109.078125 -25.125 C-71.91216204 -33.90596927 -29.43835184 -24.14652242 0 0 Z " fill="#542BB7" transform="translate(208.6484375,27.08984375)"/>
</svg>
